<svg class="svg-icon" style="width: 1em; height: 1em;vertical-align: middle;fill: currentColor;overflow: hidden;" viewBox="0 0 1024 1024" version="1.1" xmlns="http://www.w3.org/2000/svg"><path d="M999.5 855.12h-33.72V320.46v-0.04c0-39.92-29.24-73.14-67.44-79.4a142.6 142.6 0 0 0-3.08-0.44c-3.28-0.4-6.6-0.64-9.98-0.64h-15.84V161.32c0-15.86-9.22-29.78-23-37.48a49.72 49.72 0 0 0-18.62-5.98v-4.44c0-3.86-0.48-7.66-1.5-11.44-0.3-1.02-0.64-2.22-1.12-3.46-0.2-0.58-0.44-1.16-0.66-1.74-0.06-0.14-0.12-0.3-0.2-0.44l-0.18-0.42c-0.2-0.44-0.4-0.86-0.6-1.3-0.02-0.06-0.06-0.12-0.1-0.18-0.46-0.92-1.1-2.14-1.86-3.4l-0.18-0.3c-0.64-1.02-1.26-1.96-1.9-2.82-0.1-0.16-0.22-0.32-0.34-0.48-1.24-1.62-2.52-3.1-4.02-4.62a43 43 0 0 0-30.56-12.64H543.24c-13.34 0-25.3 6.08-33.24 15.62-7.92-9.54-19.88-15.62-33.24-15.62H235.4c-23.84 0-43.24 19.4-43.24 43.22v4.46c-5.3 0.62-10.34 2.06-14.96 4.16-0.22 0.08-0.4 0.18-0.62 0.28-0.44 0.22-0.9 0.42-1.34 0.66-0.4 0.2-0.8 0.4-1.18 0.62-0.24 0.12-0.46 0.24-0.7 0.38-0.54 0.3-1.1 0.62-1.62 0.96-0.06 0.04-0.12 0.06-0.18 0.1-2.94 1.82-5.7 3.96-8.14 6.38-1.18 1.14-2.26 2.36-3.3 3.64-0.04 0.04-0.08 0.1-0.12 0.14-0.32 0.4-0.68 0.8-0.98 1.22-0.14 0.18-0.26 0.4-0.4 0.6-0.56 0.76-1.08 1.54-1.6 2.34-0.22 0.36-0.46 0.72-0.68 1.1-0.54 0.9-1.04 1.84-1.5 2.78-0.1 0.22-0.24 0.44-0.36 0.66-2.6 5.52-3.92 11.4-3.92 17.44v78.62h-11.86c-44.38 0.02-80.48 36.12-80.48 80.48v534.7H24.5c-5.52 0-10 4.48-10 10v43.72c0 3.84 2.18 7.32 5.64 9l72.12 34.98c1.36 0.66 2.86 1 4.38 1h830.72c1.52 0 3-0.34 4.36-1l72.14-34.98a9.984 9.984 0 0 0 5.64-9v-43.72c0-5.52-4.48-10-10-10zM520 113.42c0.02-12.82 10.44-23.24 23.24-23.24H784.6c6.2 0 12.04 2.42 16.36 6.72 0.74 0.76 1.42 1.54 2.08 2.38 0.08 0.1 0.18 0.22 0.26 0.34 0.38 0.48 0.76 1.06 1.16 1.74l0.14 0.2c0.34 0.6 0.68 1.24 1 1.86 0.1 0.2 0.18 0.4 0.26 0.6l0.16 0.34c0.14 0.34 0.28 0.68 0.4 1.02 0.02 0.08 0.04 0.14 0.06 0.2 0.24 0.62 0.42 1.24 0.56 1.74 0.52 1.92 0.78 3.98 0.78 6.1v370.88c0 2.12-0.26 4.18-0.78 6.12-0.18 0.58-0.32 1.18-0.54 1.76-0.3 0.74-0.6 1.48-0.94 2.2-0.34 0.68-0.7 1.34-1.08 2-0.06 0.08-0.1 0.16-0.16 0.24-0.38 0.6-0.76 1.16-1.08 1.62-4.44 5.92-11.22 9.32-18.62 9.32H543.24c-12.8 0-23.22-10.42-23.24-23.24V113.42z m0 407.34c6.72 4.3 14.7 6.8 23.24 6.8h241.38c13.56 0 26.5-6.48 34.72-17.48 0.82-1.14 1.54-2.2 2.18-3.22l0.3-0.54c0.54-0.92 1.08-1.92 1.68-3.08 0.04-0.1 0.08-0.18 0.12-0.26 0.54-1.14 1.04-2.32 1.54-3.6 0.48-1.28 0.82-2.46 1.12-3.5 0-0.04 0.04-0.18 0.06-0.22 0.98-3.66 1.48-7.48 1.48-11.36V138.08c3.4 0.66 6.58 1.84 9.38 3.48 7.38 4.28 12.24 11.54 12.24 19.76V538.92c0 5.3-2.06 10.18-5.48 14.16-5.06 5.84-13.12 9.66-22.24 9.66h-274c-15.28 0-27.72-10.7-27.72-23.82v-18.16zM212.16 113.4c0-12.8 10.42-23.22 23.24-23.22h241.36c12.82 0 23.24 10.42 23.24 23.22V484.32c0 12.82-10.42 23.24-23.24 23.24H235.4c-12.82 0-23.24-10.42-23.24-23.24V113.4z m-41.6 136.56v-0.02V161.32c0-1.62 0.2-3.2 0.56-4.74 0.04-0.18 0.1-0.36 0.16-0.54 0.14-0.56 0.3-1.12 0.5-1.66 0.1-0.32 0.24-0.64 0.38-0.96 0.16-0.38 0.32-0.78 0.5-1.16 0.2-0.42 0.44-0.82 0.66-1.24 0.14-0.26 0.28-0.52 0.44-0.76 0.28-0.48 0.6-0.94 0.94-1.4 0.14-0.2 0.26-0.4 0.42-0.58 0.2-0.28 0.42-0.54 0.64-0.8s0.44-0.52 0.68-0.78c0.3-0.32 0.6-0.64 0.92-0.96l0.14-0.14c0.6-0.58 1.22-1.14 1.88-1.66l0.3-0.24c0.62-0.48 1.24-0.94 1.9-1.36 0.14-0.08 0.26-0.16 0.38-0.24 0.66-0.42 1.34-0.8 2.04-1.16 0.12-0.08 0.26-0.14 0.38-0.2 0.72-0.38 1.46-0.7 2.22-1 0.12-0.06 0.22-0.1 0.34-0.14 0.8-0.32 1.62-0.58 2.44-0.84l0.24-0.06c0.84-0.24 1.68-0.44 2.54-0.6v346.22c0 23.84 19.4 43.24 43.24 43.24h241.36c8.56 0 16.52-2.5 23.24-6.8v18.2c-0.02 13.1-12.44 23.78-27.7 23.78h-274c-1 0-2-0.04-2.98-0.14h-0.04c-0.96-0.1-1.92-0.22-2.84-0.4l-0.24-0.06c-0.88-0.16-1.74-0.36-2.58-0.6-0.1-0.04-0.2-0.06-0.28-0.1-0.82-0.24-1.64-0.52-2.44-0.82-0.1-0.04-0.18-0.08-0.28-0.12-0.8-0.32-1.56-0.66-2.32-1.04-0.08-0.04-0.16-0.1-0.26-0.14-0.76-0.4-1.48-0.82-2.2-1.26a1.346 1.346 0 0 0-0.22-0.14c-0.72-0.48-1.42-0.98-2.1-1.52-0.06-0.04-0.1-0.08-0.16-0.12-0.68-0.54-1.32-1.12-1.96-1.74l-0.14-0.14c-0.24-0.24-0.48-0.5-0.72-0.76a18.02 18.02 0 0 1-0.84-0.96c-0.2-0.24-0.4-0.46-0.58-0.72-0.16-0.22-0.3-0.44-0.46-0.66-0.32-0.42-0.62-0.84-0.88-1.28-0.22-0.34-0.4-0.7-0.6-1.06-0.16-0.32-0.36-0.64-0.5-0.96-0.2-0.38-0.36-0.78-0.52-1.18-0.12-0.32-0.28-0.64-0.38-0.98-0.2-0.52-0.34-1.06-0.48-1.58-0.06-0.22-0.14-0.42-0.18-0.62-0.36-1.52-0.56-3.1-0.56-4.72V249.96z m-16.1 306.36c1.2 2.58 2.74 5.1 4.56 7.52 1.38 1.86 2.88 3.54 4.34 4.94 2.48 2.44 5.24 4.6 8.22 6.44 0.04 0.02 0.08 0.04 0.12 0.08a72.992 72.992 0 0 0 2.26 1.3c0.44 0.24 0.86 0.46 1.3 0.7l1.14 0.54c0.28 0.14 0.56 0.26 0.82 0.4 0.6 0.26 1.22 0.52 1.82 0.78 0.08 0.02 0.16 0.06 0.24 0.08 5.82 2.34 12.26 3.64 19.02 3.64h273.98c15.32 0 28.98-6.68 37.72-17.02 8.74 10.34 22.4 17.02 37.74 17.02h273.98c17.26 0 32.42-8.46 40.8-21.12 4.4-6.62 6.92-14.4 6.92-22.7V315.48h28.24V811.4H126.32V315.48h24.24v223.44c0 6.04 1.32 11.9 3.9 17.4zM78.22 320.42c0-33.34 27.14-60.48 60.5-60.48h11.84v35.54H116.32c-5.52 0-10 4.48-10 10V821.4c0 5.52 4.48 10 10 10h791.36c5.52 0 10-4.48 10-10V305.48c0-5.52-4.48-10-10-10h-38.24v-35.54h15.84c4.7 0 9.26 0.56 13.66 1.58 0.48 0.12 0.98 0.22 1.48 0.34 26.06 6.74 45.36 30.44 45.36 58.56v534.7H78.22V320.42z m911.28 582.16l-64.44 31.24H98.92l-64.42-31.24v-27.46h955v27.46z" fill="#23130D" /><path d="M849.44 161.32V538.92c0 5.3-2.06 10.18-5.48 14.16-5.06 5.84-13.12 9.66-22.24 9.66h-274c-15.28 0-27.72-10.7-27.72-23.82v-18.16c6.72 4.3 14.7 6.8 23.24 6.8h241.38c13.56 0 26.5-6.48 34.72-17.48 0.82-1.14 1.54-2.2 2.18-3.22l0.3-0.54c0.54-0.92 1.08-1.92 1.68-3.08 0.04-0.1 0.08-0.18 0.12-0.26 0.54-1.14 1.04-2.32 1.54-3.6 0.48-1.28 0.82-2.46 1.12-3.5 0-0.04 0.04-0.18 0.06-0.22 0.98-3.66 1.48-7.48 1.48-11.36V138.08c3.4 0.66 6.58 1.84 9.38 3.48 7.38 4.28 12.24 11.54 12.24 19.76zM500 520.76v18.2c-0.02 13.1-12.44 23.78-27.7 23.78h-274c-1 0-2-0.04-2.98-0.14h-0.04c-0.96-0.1-1.92-0.22-2.84-0.4l-0.24-0.06c-0.88-0.16-1.74-0.36-2.58-0.6-0.1-0.04-0.2-0.06-0.28-0.1-0.82-0.24-1.64-0.52-2.44-0.82-0.1-0.04-0.18-0.08-0.28-0.12-0.8-0.32-1.56-0.66-2.32-1.04-0.08-0.04-0.16-0.1-0.26-0.14-0.76-0.4-1.48-0.82-2.2-1.26a1.346 1.346 0 0 0-0.22-0.14c-0.72-0.48-1.42-0.98-2.1-1.52-0.06-0.04-0.1-0.08-0.16-0.12-0.68-0.54-1.32-1.12-1.96-1.74l-0.14-0.14c-0.24-0.24-0.48-0.5-0.72-0.76a18.02 18.02 0 0 1-0.84-0.96c-0.2-0.24-0.4-0.46-0.58-0.72-0.16-0.22-0.3-0.44-0.46-0.66-0.32-0.42-0.62-0.84-0.88-1.28-0.22-0.34-0.4-0.7-0.6-1.06-0.16-0.32-0.36-0.64-0.5-0.96-0.2-0.38-0.36-0.78-0.52-1.18-0.12-0.32-0.28-0.64-0.38-0.98-0.2-0.52-0.34-1.06-0.48-1.58-0.06-0.22-0.14-0.42-0.18-0.62-0.36-1.52-0.56-3.1-0.56-4.72V249.96v-0.02V161.32c0-1.62 0.2-3.2 0.56-4.74 0.04-0.18 0.1-0.36 0.16-0.54 0.14-0.56 0.3-1.12 0.5-1.66 0.1-0.32 0.24-0.64 0.38-0.96 0.16-0.38 0.32-0.78 0.5-1.16 0.2-0.42 0.44-0.82 0.66-1.24 0.14-0.26 0.28-0.52 0.44-0.76 0.28-0.48 0.6-0.94 0.94-1.4 0.14-0.2 0.26-0.4 0.42-0.58 0.2-0.28 0.42-0.54 0.64-0.8s0.44-0.52 0.68-0.78c0.3-0.32 0.6-0.64 0.92-0.96l0.14-0.14c0.6-0.58 1.22-1.14 1.88-1.66l0.3-0.24c0.62-0.48 1.24-0.94 1.9-1.36 0.14-0.08 0.26-0.16 0.38-0.24 0.66-0.42 1.34-0.8 2.04-1.16 0.12-0.08 0.26-0.14 0.38-0.2 0.72-0.38 1.46-0.7 2.22-1 0.12-0.06 0.22-0.1 0.34-0.14 0.8-0.32 1.62-0.58 2.44-0.84l0.24-0.06c0.84-0.24 1.68-0.44 2.54-0.6v346.22c0 23.84 19.4 43.24 43.24 43.24h241.36c8.56 0 16.52-2.5 23.24-6.8z" fill="#CC7B5A" /><path d="M826.34 495.66c0.98-3.66 1.48-7.48 1.48-11.36v17c0 3.88-0.5 7.7-1.48 11.36a0.9 0.9 0 0 0-0.06 0.22c-0.3 1.04-0.64 2.22-1.12 3.5a55.638 55.638 0 0 1-1.66 3.86c-0.6 1.16-1.14 2.16-1.68 3.08l-0.3 0.54c-0.64 1.02-1.36 2.08-2.18 3.22-8.22 11-21.16 17.48-34.72 17.48H543.24c-8.54 0-16.52-2.5-23.24-6.8v-17c6.72 4.3 14.7 6.8 23.24 6.8h241.38c13.56 0 26.5-6.48 34.72-17.48 0.82-1.14 1.54-2.2 2.18-3.22l0.3-0.54c0.54-0.92 1.08-1.92 1.68-3.08 0.04-0.1 0.08-0.18 0.12-0.26 0.54-1.14 1.04-2.32 1.54-3.6 0.48-1.28 0.82-2.46 1.12-3.5 0-0.04 0.04-0.18 0.06-0.22zM849.44 161.32v17c0-8.22-4.86-15.48-12.24-19.76-2.8-1.64-5.98-2.82-9.38-3.48v-17c3.4 0.66 6.58 1.84 9.38 3.48 7.38 4.28 12.24 11.54 12.24 19.76zM192.16 155.1c-0.86 0.16-1.7 0.36-2.54 0.6l-0.24 0.06c-0.82 0.26-1.64 0.52-2.44 0.84-0.12 0.04-0.22 0.08-0.34 0.14-0.76 0.3-1.5 0.62-2.22 1-0.12 0.06-0.26 0.12-0.38 0.2-0.7 0.36-1.38 0.74-2.04 1.16-0.12 0.08-0.24 0.16-0.38 0.24-0.66 0.42-1.28 0.88-1.9 1.36l-0.3 0.24c-0.66 0.52-1.28 1.08-1.88 1.66l-0.14 0.14c-0.32 0.32-0.62 0.64-0.92 0.96-0.24 0.26-0.46 0.52-0.68 0.78s-0.44 0.52-0.64 0.8c-0.16 0.18-0.28 0.38-0.42 0.58-0.34 0.46-0.66 0.92-0.94 1.4-0.16 0.24-0.3 0.5-0.44 0.76-0.22 0.42-0.46 0.82-0.66 1.24-0.18 0.38-0.34 0.78-0.5 1.16-0.14 0.32-0.28 0.64-0.38 0.96-0.2 0.54-0.36 1.1-0.5 1.66-0.06 0.18-0.12 0.36-0.16 0.54-0.36 1.54-0.56 3.12-0.56 4.74v-17c0-1.62 0.2-3.2 0.56-4.74 0.04-0.18 0.1-0.36 0.16-0.54 0.14-0.56 0.3-1.12 0.5-1.66 0.1-0.32 0.24-0.64 0.38-0.96 0.16-0.38 0.32-0.78 0.5-1.16 0.2-0.42 0.44-0.82 0.66-1.24 0.14-0.26 0.28-0.52 0.44-0.76 0.28-0.48 0.6-0.94 0.94-1.4 0.14-0.2 0.26-0.4 0.42-0.58 0.2-0.28 0.42-0.54 0.64-0.8s0.44-0.52 0.68-0.78c0.3-0.32 0.6-0.64 0.92-0.96l0.14-0.14c0.6-0.58 1.22-1.14 1.88-1.66l0.3-0.24c0.62-0.48 1.24-0.94 1.9-1.36 0.14-0.08 0.26-0.16 0.38-0.24 0.66-0.42 1.34-0.8 2.04-1.16 0.12-0.08 0.26-0.14 0.38-0.2 0.72-0.38 1.46-0.7 2.22-1 0.12-0.06 0.22-0.1 0.34-0.14 0.8-0.32 1.62-0.58 2.44-0.84l0.24-0.06c0.84-0.24 1.68-0.44 2.54-0.6v17zM500 520.76v17c-6.72 4.3-14.68 6.8-23.24 6.8H235.4c-23.84 0-43.24-19.4-43.24-43.24v-17c0 23.84 19.4 43.24 43.24 43.24h241.36c8.56 0 16.52-2.5 23.24-6.8z" opacity=".2" /><path d="M476.76 90.18H235.4c-12.82 0-23.24 10.42-23.24 23.22v370.92c0 12.82 10.42 23.24 23.24 23.24h241.36c12.82 0 23.24-10.42 23.24-23.24V113.42v-0.02c0-12.8-10.42-23.22-23.24-23.22z m-14.04 391.08H249.44c-5.52 0-10-4.46-10-10 0-5.52 4.48-10 10-10h213.28c5.52 0 10 4.48 10 10 0 5.54-4.48 10-10 10z m0-31.5H249.44c-5.52 0-10-4.48-10-10 0-5.54 4.48-10 10-10h213.28c5.52 0 10 4.46 10 10 0 5.52-4.48 10-10 10z m0-31.54H249.44c-5.52 0-10-4.48-10-10s4.48-10 10-10h213.28c5.52 0 10 4.48 10 10s-4.48 10-10 10z m0-31.52H249.44c-5.52 0-10-4.48-10-10s4.48-10 10-10h213.28c5.52 0 10 4.48 10 10s-4.48 10-10 10z m0-31.54H249.44c-5.52 0-10-4.46-10-10 0-5.52 4.48-10 10-10h213.28c5.52 0 10 4.48 10 10 0 5.54-4.48 10-10 10z m10.62-41.52c0 5.52-4.48 10-10 10H250.08c-5.52 0-10-4.48-10-10V126.46c0-5.52 4.48-10 10-10h213.26c5.52 0 10 4.48 10 10v187.18zM807.04 107.32c-0.14-0.5-0.32-1.12-0.56-1.74-0.02-0.06-0.04-0.12-0.06-0.2-0.12-0.34-0.26-0.68-0.4-1.02l-0.16-0.34c-0.08-0.2-0.16-0.4-0.26-0.6-0.32-0.62-0.66-1.26-1-1.86l-0.14-0.2c-0.4-0.68-0.78-1.26-1.16-1.74-0.08-0.12-0.18-0.24-0.26-0.34-0.66-0.84-1.34-1.62-2.08-2.38a23.102 23.102 0 0 0-16.36-6.72H543.24c-12.8 0-23.22 10.42-23.24 23.24v370.9c0.02 12.82 10.44 23.24 23.24 23.24h241.38c7.4 0 14.18-3.4 18.62-9.32 0.32-0.46 0.7-1.02 1.08-1.62 0.06-0.08 0.1-0.16 0.16-0.24 0.38-0.66 0.74-1.32 1.08-2 0.34-0.72 0.64-1.46 0.94-2.2 0.22-0.58 0.36-1.18 0.54-1.76 0.52-1.94 0.78-4 0.78-6.12V113.42c0-2.12-0.26-4.18-0.78-6.1z m-36.48 373.94H557.3c-5.54 0-10-4.46-10-10 0-5.52 4.46-10 10-10h213.26c5.52 0 10 4.48 10 10 0 5.54-4.48 10-10 10z m0-31.5H557.3c-5.54 0-10-4.48-10-10 0-5.54 4.46-10 10-10h213.26c5.52 0 10 4.46 10 10 0 5.52-4.48 10-10 10z m0-31.54H557.3c-5.54 0-10-4.48-10-10s4.46-10 10-10h213.26c5.52 0 10 4.48 10 10s-4.48 10-10 10z m0-31.52H557.3c-5.54 0-10-4.48-10-10s4.46-10 10-10h213.26c5.52 0 10 4.48 10 10s-4.48 10-10 10z m0-31.54H557.3c-5.54 0-10-4.46-10-10 0-5.52 4.46-10 10-10h213.26c5.52 0 10 4.48 10 10 0 5.54-4.48 10-10 10z m10-41.52c0 5.52-4.48 10-10 10H557.3c-5.52 0-10-4.48-10-10V126.46c0-5.52 4.48-10 10-10h213.26c5.52 0 10 4.48 10 10v187.18z" fill="#E1E1E5" /><path d="M945.78 320.42v534.7H78.22V320.42c0-33.34 27.14-60.48 60.5-60.48h11.84v35.54H116.32c-5.52 0-10 4.48-10 10V821.4c0 5.52 4.48 10 10 10h791.36c5.52 0 10-4.48 10-10V305.48c0-5.52-4.48-10-10-10h-38.24v-35.54h15.84c4.7 0 9.26 0.56 13.66 1.58 0.48 0.12 0.98 0.22 1.48 0.34 26.06 6.74 45.36 30.44 45.36 58.56z" fill="#E1E1E5" /><path d="M34.5 875.12v27.46l64.42 31.24h826.14l64.44-31.24v-27.46H34.5z m595.56 39.34H393.94c-5.52 0-10-4.48-10-10s4.48-10 10-10h236.12c5.52 0 10 4.48 10 10s-4.48 10-10 10z" fill="#636368" /><path d="M925.06 913.82H633.56c-1.1 0.42-2.28 0.64-3.5 0.64H393.94c-1.22 0-2.4-0.22-3.5-0.64H98.92l-64.42-31.24v20l64.42 31.24h826.14l64.44-31.24v-20l-64.44 31.24z" opacity=".2" /><path d="M869.44 315.48v223.44c0 8.3-2.52 16.08-6.92 22.7-8.38 12.66-23.54 21.12-40.8 21.12H547.74c-15.34 0-29-6.68-37.74-17.02-8.74 10.34-22.4 17.02-37.72 17.02H198.3c-6.76 0-13.2-1.3-19.02-3.64-0.08-0.02-0.16-0.06-0.24-0.08-0.6-0.26-1.22-0.52-1.82-0.78-0.26-0.14-0.54-0.26-0.82-0.4l-1.14-0.54c-0.44-0.24-0.86-0.46-1.3-0.7a72.992 72.992 0 0 1-2.26-1.3c-0.04-0.04-0.08-0.06-0.12-0.08-2.98-1.84-5.74-4-8.22-6.44-1.46-1.4-2.96-3.08-4.34-4.94-1.82-2.42-3.36-4.94-4.56-7.52a40.708 40.708 0 0 1-3.9-17.4V315.48H126.32V811.4h771.36V315.48h-28.24z m1.9 376.74c-0.04 0.34-0.1 0.64-0.18 0.96-0.06 0.32-0.1 0.64-0.2 0.94-0.1 0.36-0.26 0.72-0.42 1.06-0.08 0.22-0.14 0.44-0.24 0.64-0.02 0.06-0.06 0.1-0.08 0.14-0.08 0.14-0.16 0.26-0.24 0.38-0.22 0.38-0.48 0.76-0.74 1.1a5.6 5.6 0 0 0-0.32 0.4c-0.4 0.42-0.8 0.84-1.24 1.2h-0.02c-0.46 0.4-0.98 0.7-1.52 1-0.06 0.02-0.1 0.08-0.16 0.1l-64.8 33.28c-0.14 0.08-0.3 0.14-0.46 0.2-0.12 0.06-0.26 0.12-0.38 0.18-0.54 0.2-1.06 0.38-1.62 0.5-0.08 0.02-0.18 0.02-0.26 0.04-0.62 0.12-1.22 0.18-1.84 0.18H233.88c-4.6 7.64-12.94 12.76-22.48 12.76-9.54 0-17.88-5.12-22.48-12.76H158.6c-5.52 0-10-4.46-10-10v-66.54c0-5.52 4.48-10 10-10h30.32c4.6-7.64 12.94-12.76 22.48-12.76 9.54 0 17.88 5.12 22.48 12.76h562.74c0.1 0 0.22 0.02 0.32 0.02 0.38 0.02 0.74 0.06 1.12 0.12 0.3 0.04 0.6 0.08 0.9 0.16 0.3 0.08 0.6 0.18 0.9 0.28 0.34 0.12 0.68 0.24 1 0.4 0.12 0.04 0.22 0.06 0.32 0.12l64.8 33.28c0.02 0.02 0.06 0.04 0.1 0.06 0.36 0.2 0.7 0.44 1.04 0.68 0.2 0.14 0.42 0.26 0.62 0.42 0.24 0.2 0.46 0.46 0.7 0.68 0.22 0.24 0.48 0.46 0.7 0.72 0.14 0.2 0.26 0.42 0.4 0.62 0.24 0.34 0.5 0.68 0.68 1.04 0.02 0.04 0.06 0.06 0.08 0.1 0.1 0.2 0.16 0.42 0.24 0.64 0.16 0.34 0.32 0.7 0.42 1.06 0.1 0.32 0.14 0.62 0.2 0.92 0.08 0.34 0.14 0.66 0.18 0.98 0.02 0.32 0.02 0.64 0.02 0.96 0 0.34 0 0.66-0.02 0.98z m-573.8-109.48h-34.78L328 647.98h34.78l-65.24-65.24z" fill="#3594BF" /><path d="M640.06 904.46c0 5.52-4.48 10-10 10H393.94c-5.52 0-10-4.48-10-10s4.48-10 10-10h236.12c5.52 0 10 4.48 10 10zM472.72 471.26c0 5.54-4.48 10-10 10H249.44c-5.52 0-10-4.46-10-10 0-5.52 4.48-10 10-10h213.28c5.52 0 10 4.48 10 10zM472.72 439.76c0 5.52-4.48 10-10 10H249.44c-5.52 0-10-4.48-10-10 0-5.54 4.48-10 10-10h213.28c5.52 0 10 4.46 10 10zM472.72 408.22c0 5.52-4.48 10-10 10H249.44c-5.52 0-10-4.48-10-10s4.48-10 10-10h213.28c5.52 0 10 4.48 10 10zM472.72 376.7c0 5.52-4.48 10-10 10H249.44c-5.52 0-10-4.48-10-10s4.48-10 10-10h213.28c5.52 0 10 4.48 10 10zM472.72 345.16c0 5.54-4.48 10-10 10H249.44c-5.52 0-10-4.46-10-10 0-5.52 4.48-10 10-10h213.28c5.52 0 10 4.48 10 10zM780.56 345.16c0 5.54-4.48 10-10 10H557.3c-5.54 0-10-4.46-10-10 0-5.52 4.46-10 10-10h213.26c5.52 0 10 4.48 10 10zM780.56 376.7c0 5.52-4.48 10-10 10H557.3c-5.54 0-10-4.48-10-10s4.46-10 10-10h213.26c5.52 0 10 4.48 10 10zM780.56 408.22c0 5.52-4.48 10-10 10H557.3c-5.54 0-10-4.48-10-10s4.46-10 10-10h213.26c5.52 0 10 4.48 10 10zM780.56 439.76c0 5.52-4.48 10-10 10H557.3c-5.54 0-10-4.48-10-10 0-5.54 4.46-10 10-10h213.26c5.52 0 10 4.46 10 10zM780.56 471.26c0 5.54-4.48 10-10 10H557.3c-5.54 0-10-4.46-10-10 0-5.52 4.46-10 10-10h213.26c5.52 0 10 4.48 10 10zM770.56 116.46H557.3c-5.52 0-10 4.48-10 10v187.18c0 5.52 4.48 10 10 10h213.26c5.52 0 10-4.48 10-10V126.46c0-5.52-4.48-10-10-10z m-155.58 187.18l28.12-48.7 20.82-36.06 14.82 25.68-34.12 59.08h-29.64z m145.58 0h-92.84l28.12-48.7s0-0.02 0.02-0.02l39.08-67.7 25.62 44.36v72.06z m0-112.06l-16.96-29.36a9.994 9.994 0 0 0-8.66-5c-3.58 0-6.88 1.9-8.66 5l-36 62.34-17.7-30.68a9.97 9.97 0 0 0-8.66-5c-1.8 0-3.52 0.48-5 1.34-1.5 0.86-2.76 2.1-3.66 3.66l-60.74 105.22-2.64 4.54h-24.58V136.46h193.26v55.12z" fill="#23130D" /><path d="M567.3 136.46v167.18h24.58l2.64-4.54 60.74-105.22c0.9-1.56 2.16-2.8 3.66-3.66 1.48-0.86 3.2-1.34 5-1.34 3.58 0 6.88 1.9 8.66 5l17.7 30.68 36-62.34c1.78-3.1 5.08-5 8.66-5 3.56 0 6.88 1.9 8.66 5l16.96 29.36V136.46h-193.26z m40.9 70.94c-16.9 0-30.64-13.76-30.64-30.66s13.74-30.64 30.64-30.64 30.64 13.74 30.64 30.64-13.74 30.66-30.64 30.66z" fill="#8FDCFF" /><path d="M678.74 244.56l-34.12 59.08h-29.64l28.12-48.7 20.82-36.06z" fill="#E59D89" /><path d="M760.56 231.58v72.06h-92.84l28.12-48.7s0-0.02 0.02-0.02l39.08-67.7 25.62 44.36z" fill="#F8D3C9" /><path d="M671.24 231.58l-13.48 23.36-28.12 48.7h-14.66l28.12-48.7 20.82-36.06zM742.28 199.92l-31.76 55c-0.02 0-0.02 0.02-0.02 0.02l-28.12 48.7h-14.66l28.12-48.7s0-0.02 0.02-0.02l39.08-67.7 7.34 12.7z" opacity=".2" /><path d="M463.34 116.46H250.08c-5.52 0-10 4.48-10 10v187.18c0 5.52 4.48 10 10 10h213.26c5.52 0 10-4.48 10-10V126.46c0-5.52-4.48-10-10-10z m-10 187.18h-193.26V136.46h193.26v167.18z" fill="#23130D" /><path d="M260.08 136.46v167.18h193.26V136.46h-193.26z m133.38 98.9l-63.5 36.66c-1.54 0.9-3.28 1.34-5 1.34a9.994 9.994 0 0 1-10-10V190.04c0-3.58 1.9-6.88 5-8.66 3.1-1.8 6.9-1.8 10 0l63.5 36.66c3.1 1.78 5 5.08 5 8.66 0 3.56-1.9 6.88-5 8.66z" fill="#EC7063" /><path d="M260.08 136.46v167.18h11.8V148.26h181.46v-11.8h-193.26z" fill="#FFFFFF" opacity=".4" /><path d="M441.54 136.46v155.38h-181.46v11.8h193.26V136.46h-11.8z" opacity=".2" /><path d="M608.2 146.1c-16.9 0-30.64 13.74-30.64 30.64s13.74 30.66 30.64 30.66 30.64-13.76 30.64-30.66-13.74-30.64-30.64-30.64z m0 41.3a10.652 10.652 0 0 1 0-21.3 10.652 10.652 0 0 1 0 21.3z" fill="#23130D" /><path d="M618.84 176.74c0 5.88-4.76 10.66-10.64 10.66a10.652 10.652 0 0 1 0-21.3c5.88 0 10.64 4.78 10.64 10.64z" fill="#F9C139" /><path d="M612.58 186.46a10.652 10.652 0 1 1-4.38-20.36c1.56 0 3.04 0.34 4.38 0.94-3.7 1.66-6.26 5.4-6.26 9.7a10.64 10.64 0 0 0 6.26 9.72z" opacity=".2" /><path d="M393.46 218.04l-63.5-36.66c-3.1-1.8-6.9-1.8-10 0-3.1 1.78-5 5.08-5 8.66v73.32a9.994 9.994 0 0 0 10 10c1.72 0 3.46-0.44 5-1.34l63.5-36.66c3.1-1.78 5-5.1 5-8.66 0-3.58-1.9-6.88-5-8.66z m-58.5 28v-38.68l33.5 19.34-33.5 19.34z" fill="#23130D" /><path d="M368.46 226.7l-33.5 19.34v-38.68z" fill="#E1E1E5" /><path d="M368.46 226.7l-33.5 19.34v-14.5l20.94-12.08z" opacity=".2" /><path d="M871.34 690.28c-0.04-0.32-0.1-0.64-0.18-0.98-0.06-0.3-0.1-0.6-0.2-0.92-0.1-0.36-0.26-0.72-0.42-1.06-0.08-0.22-0.14-0.44-0.24-0.64-0.02-0.04-0.06-0.06-0.08-0.1-0.18-0.36-0.44-0.7-0.68-1.04-0.14-0.2-0.26-0.42-0.4-0.62-0.22-0.26-0.48-0.48-0.7-0.72-0.24-0.22-0.46-0.48-0.7-0.68-0.2-0.16-0.42-0.28-0.62-0.42-0.34-0.24-0.68-0.48-1.04-0.68-0.04-0.02-0.08-0.04-0.1-0.06l-64.8-33.28c-0.1-0.06-0.2-0.08-0.32-0.12-0.32-0.16-0.66-0.28-1-0.4-0.3-0.1-0.6-0.2-0.9-0.28-0.3-0.08-0.6-0.12-0.9-0.16a10.64 10.64 0 0 0-1.12-0.12c-0.1 0-0.22-0.02-0.32-0.02H233.88c-4.6-7.64-12.94-12.76-22.48-12.76-9.54 0-17.88 5.12-22.48 12.76H158.6c-5.52 0-10 4.48-10 10v66.54c0 5.54 4.48 10 10 10h30.32c4.6 7.64 12.94 12.76 22.48 12.76 9.54 0 17.88-5.12 22.48-12.76h562.74c0.62 0 1.22-0.06 1.84-0.18 0.08-0.02 0.18-0.02 0.26-0.04 0.56-0.12 1.08-0.3 1.62-0.5 0.12-0.06 0.26-0.12 0.38-0.18 0.16-0.06 0.32-0.12 0.46-0.2l64.8-33.28c0.06-0.02 0.1-0.08 0.16-0.1 0.54-0.3 1.06-0.6 1.52-1h0.02c0.44-0.36 0.84-0.78 1.24-1.2 0.1-0.14 0.2-0.26 0.32-0.4 0.26-0.34 0.52-0.72 0.74-1.1 0.08-0.12 0.16-0.24 0.24-0.38 0.02-0.04 0.06-0.08 0.08-0.14 0.1-0.2 0.16-0.42 0.24-0.64 0.16-0.34 0.32-0.7 0.42-1.06 0.1-0.3 0.14-0.62 0.2-0.94 0.08-0.32 0.14-0.62 0.18-0.96 0.02-0.32 0.02-0.64 0.02-0.98 0-0.32 0-0.64-0.02-0.96zM185.16 714.52H168.6v-46.54h16.56v46.54z m32.48 6.52c0 3.44-2.8 6.24-6.24 6.24-2.92 0-5.36-2.02-6.04-4.72-0.02-0.1-0.06-0.2-0.08-0.3-0.08-0.4-0.12-0.8-0.12-1.22v-59.58c0-0.42 0.04-0.82 0.12-1.22 0.02-0.1 0.06-0.18 0.08-0.28a6.24 6.24 0 0 1 6.04-4.74c3.44 0 6.24 2.8 6.24 6.24v59.58z m568.98-6.52H237.64v-46.54h548.98v46.54z m20-6.36v-33.8l32.9 16.9-32.9 16.9z" fill="#23130D" /><path d="M217.64 661.46v59.58c0 3.44-2.8 6.24-6.24 6.24-2.92 0-5.36-2.02-6.04-4.72-0.02-0.1-0.06-0.2-0.08-0.3-0.08-0.4-0.12-0.8-0.12-1.22v-59.58c0-0.42 0.04-0.82 0.12-1.22 0.02-0.1 0.06-0.18 0.08-0.28a6.24 6.24 0 0 1 6.04-4.74c3.44 0 6.24 2.8 6.24 6.24z" fill="#E1E1E5" /><path d="M168.6 667.98h16.56v46.54H168.6z" fill="#EC7063" /><path d="M168.6 691.26h16.56v23.26H168.6z" opacity=".2" /><path d="M237.64 667.98v46.54h548.98v-46.54H237.64z m532.38 33.28H254.5c-5.52 0-10-4.48-10-10s4.48-10 10-10h515.52c5.54 0 10 4.48 10 10s-4.46 10-10 10z" fill="#F9C139" /><path d="M839.52 691.26l-32.9 16.9v-33.8z" fill="#E1E1E5" /><path d="M839.52 691.26l-32.9 16.9v-13l20.24-10.4z" opacity=".2" /><path d="M780.02 691.26c0 5.52-4.46 10-10 10H254.5c-5.52 0-10-4.48-10-10s4.48-10 10-10h515.52c5.54 0 10 4.48 10 10z" fill="#FFFFFF" /><path d="M328 647.98h-89.46l-112.22-112.22v-89.46l24.24 24.24v68.38c0 6.04 1.32 11.9 3.9 17.4 1.2 2.58 2.74 5.1 4.56 7.52 1.38 1.86 2.88 3.54 4.34 4.94 2.48 2.44 5.24 4.6 8.22 6.44 0.04 0.02 0.08 0.04 0.12 0.08a72.992 72.992 0 0 0 2.26 1.3c0.44 0.24 0.86 0.46 1.3 0.7l1.14 0.54c0.28 0.14 0.56 0.26 0.82 0.4 0.6 0.26 1.22 0.52 1.82 0.78 0.08 0.02 0.16 0.06 0.24 0.08 5.82 2.34 12.26 3.64 19.02 3.64H262.76L328 647.98zM491.42 811.4h-89.46l-76.88-76.88h89.46zM150.56 367v68.76l-24.24-24.24v-68.76zM431.54 647.98h-68.76l-65.24-65.24h68.76zM594.96 811.4H526.2l-76.88-76.88h68.76zM617.48 647.98h-114.3l-65.24-65.24H472.28c15.32 0 28.98-6.68 37.72-17.02 8.74 10.34 22.4 17.02 37.74 17.02h4.5l65.24 65.24zM780.9 811.4H666.6l-76.88-76.88h114.3z" fill="#FFFFFF" opacity=".4" /><path d="M78.22 839.666h867.56v15.454H78.22z" opacity=".2" /></svg>