<svg class="svg-icon" style="width: 1em; height: 1em;vertical-align: middle;fill: currentColor;overflow: hidden;" viewBox="0 0 1024 1024" version="1.1" xmlns="http://www.w3.org/2000/svg"><path d="M810.666667 85.333333l-213.333334 192v469.333334l213.333334-192V85.333333M277.333333 213.333333C194.133333 213.333333 104.533333 230.4 42.666667 277.333333v625.493334c0 10.666667 10.666667 21.333333 21.333333 21.333333 4.266667 0 6.4-2.986667 10.666667-2.986667 57.6-27.733333 140.8-46.506667 202.666666-46.506666 83.2 0 172.8 17.066667 234.666667 64 57.6-36.266667 162.133333-64 234.666667-64 70.4 0 142.933333 13.226667 202.666666 45.226666 4.266667 2.133333 6.4 1.28 10.666667 1.28 10.666667 0 21.333333-10.666667 21.333333-21.333333V277.333333c-25.6-19.2-53.333333-32-85.333333-42.666666V810.666667c-46.933333-14.933333-98.133333-21.333333-149.333333-21.333334-72.533333 0-177.066667 27.733333-234.666667 64V277.333333C450.133333 230.4 360.533333 213.333333 277.333333 213.333333z" fill="" /></svg>