<svg class="svg-icon" style="width: 1em; height: 1em;vertical-align: middle;fill: currentColor;overflow: hidden;" viewBox="0 0 1024 1024" version="1.1" xmlns="http://www.w3.org/2000/svg"><path d="M556.8 100.8v620.8H467.2v-620.8z" fill="#453F3C" /><path d="M492.8 126.4h38.4v569.6h-38.4z" fill="#7A6862" /><path d="M499.2 126.4h12.8v12.8h-12.8zM518.4 126.4h6.4v12.8h-6.4z" fill="#FFFFFF" opacity=".14" /><path d="M492.8 139.2h38.4v12.8h-38.4z" opacity=".14" /><path d="M492.8 651.2h38.4v12.8h-38.4zM492.8 683.2h38.4v12.8h-38.4z" opacity=".24" /><path d="M729.6 152v448H294.4v-448z" fill="#453F3C" /><path d="M320 177.6h384v396.8H320z" fill="#99827A" /><path d="M320 561.6h384v12.8H320z" opacity=".14" /><path d="M320 177.6h384v12.8H320zM556.8 190.4h12.8v358.4h-12.8zM582.4 190.4h6.4v358.4h-6.4z" fill="#FFFFFF" opacity=".24" /><path d="M691.2 139.2v435.2H332.8v-435.2z" fill="#453F3C" /><path d="M358.4 164.8h307.2v384H358.4z" fill="#E2E0E0" /><path d="M358.4 164.8h307.2v12.8H358.4z" fill="#FFFFFF" opacity=".4" /><path d="M358.4 536h307.2v12.8H358.4z" opacity=".14" /><path d="M556.8 177.6h12.8v358.4h-12.8zM582.4 177.6h6.4v358.4h-6.4z" fill="#FFFFFF" opacity=".4" /><path d="M307.2 715.2v38.4H243.2v-38.4z" fill="#453F3C" /><path d="M256 728h38.4v12.8h-38.4z" fill="#7A7571" /><path d="M281.6 728h12.8v12.8h-12.8z" opacity=".24" /><path d="M249.6 766.4a19.2 19.2 0 0 1-19.2-19.2v-25.6a19.2 19.2 0 0 1 38.4 0v25.6a19.2 19.2 0 0 1-19.2 19.2z" fill="#453F3C" /><path d="M243.2 715.2m6.4 0l0 0q6.4 0 6.4 6.4l0 25.6q0 6.4-6.4 6.4l0 0q-6.4 0-6.4-6.4l0-25.6q0-6.4 6.4-6.4Z" fill="#7A7571" /><path d="M230.4 702.4h38.4v25.6h-38.4z" fill="#FFFFFF" opacity=".24" /><path d="M230.4 740.8h38.4v25.6h-38.4z" opacity=".14" /><path d="M780.8 715.2v38.4h-64v-38.4z" fill="#453F3C" /><path d="M768 740.8h-38.4v-12.8h38.4z" fill="#7A7571" /><path d="M742.4 740.8h-12.8v-12.8h12.8z" opacity=".24" /><path d="M774.4 766.4a19.2 19.2 0 0 0 19.2-19.2v-25.6a19.2 19.2 0 0 0-38.4 0v25.6a19.2 19.2 0 0 0 19.2 19.2z" fill="#453F3C" /><path d="M768 715.2m6.4 0l0 0q6.4 0 6.4 6.4l0 25.6q0 6.4-6.4 6.4l0 0q-6.4 0-6.4-6.4l0-25.6q0-6.4 6.4-6.4Z" fill="#7A7571" /><path d="M793.6 728h-38.4v-25.6h38.4z" fill="#FFFFFF" opacity=".24" /><path d="M793.6 766.4h-38.4v-25.6h38.4z" opacity=".14" /><path d="M665.6 696v76.8H358.4v-76.8z" fill="#453F3C" /><path d="M384 721.6h256v25.6H384z" fill="#7A6862" /><path d="M384 721.6h12.8v25.6h-12.8zM627.2 721.6h12.8v25.6h-12.8zM396.8 721.6h230.4v12.8H396.8z" opacity=".24" /><path d="M531.2 734.4h12.8v12.8h-12.8zM556.8 734.4h6.4v12.8h-6.4z" fill="#FFFFFF" opacity=".14" /><path d="M512 734.4m-6.4 0a6.4 6.4 0 1 0 12.8 0 6.4 6.4 0 1 0-12.8 0Z" fill="#453F3C" /><path d="M384 625.6v256H294.4v-256z" fill="#453F3C" /><path d="M320 651.2h38.4v204.8h-38.4z" fill="#99827A" /><path d="M320 651.2h38.4v25.6h-38.4zM320 843.2h38.4v12.8h-38.4z" opacity=".24" /><path d="M339.2 676.8h6.4v166.4h-6.4z" fill="#FFFFFF" opacity=".14" /><path d="M339.2 734.4m-12.8 0a12.8 12.8 0 1 0 25.6 0 12.8 12.8 0 1 0-25.6 0Z" fill="#453F3C" /><path d="M729.6 625.6v256h-89.6v-256z" fill="#453F3C" /><path d="M665.6 651.2h38.4v204.8h-38.4z" fill="#99827A" /><path d="M665.6 651.2h38.4v25.6h-38.4zM665.6 843.2h38.4v12.8h-38.4z" opacity=".24" /><path d="M684.8 676.8h6.4v166.4h-6.4z" fill="#FFFFFF" opacity=".14" /><path d="M684.8 734.4m-12.8 0a12.8 12.8 0 1 0 25.6 0 12.8 12.8 0 1 0-25.6 0Z" fill="#453F3C" /><path d="M768 574.4v76.8H256v-76.8z" fill="#453F3C" /><path d="M281.6 600h460.8v25.6H281.6z" fill="#C9ADA1" /><path d="M281.6 600h460.8v12.8H281.6zM556.8 612.8h12.8v12.8h-12.8zM582.4 612.8h6.4v12.8h-6.4z" fill="#FFFFFF" opacity=".24" /><path d="M678.4 548.8v38.4H345.6v-38.4z" fill="#453F3C" /><path d="M358.4 561.6h307.2v12.8H358.4z" fill="#C9ADA1" /><path d="M358.4 561.6h307.2v6.4H358.4zM531.2 568h12.8v6.4h-12.8zM556.8 568h6.4v6.4h-6.4z" fill="#FFFFFF" opacity=".24" /><path d="M275.2 920a32 32 0 0 1 0-64h473.6a32 32 0 0 1 0 64z" fill="#453F3C" /><path d="M268.8 881.6m6.4 0l473.6 0q6.4 0 6.4 6.4l0 0q0 6.4-6.4 6.4l-473.6 0q-6.4 0-6.4-6.4l0 0q0-6.4 6.4-6.4Z" fill="#99827A" /><path d="M243.2 856h537.6v32H243.2z" fill="#FFFFFF" opacity=".24" /><path d="M556.8 888h12.8v6.4h-12.8zM582.4 888h6.4v6.4h-6.4z" fill="#FFFFFF" opacity=".24" /></svg>