<svg class="svg-icon" style="width: 1em; height: 1em;vertical-align: middle;fill: currentColor;overflow: hidden;" viewBox="0 0 1024 1024" version="1.1" xmlns="http://www.w3.org/2000/svg"><path d="M802.74 427.558h-26.576c-6.406-25.196-16.402-49.244-29.826-71.762l18.866-18.866c12.918-12.918 12.918-33.94 0-46.86l-48.374-48.374c-12.918-12.916-33.94-12.916-46.86 0l-18.866 18.864a270.128 270.128 0 0 0-54.658-24.844V50.238C596.442 22.536 573.906 0 546.204 0H477.8c-27.702 0-50.238 22.536-50.238 50.238v185.476a269.974 269.974 0 0 0-54.664 24.846l-18.866-18.866c-12.918-12.916-33.94-12.916-46.86 0L258.8 290.066c-12.918 12.918-12.918 33.94 0 46.86l18.866 18.866c-13.426 22.518-23.422 46.566-29.826 71.762h-26.58c-18.272 0-33.136 14.864-33.136 33.136v68.41c0 18.272 14.864 33.136 33.136 33.136h26.576c6.406 25.196 16.402 49.244 29.826 71.762l-18.864 18.866c-12.918 12.918-12.918 33.94 0 46.86l48.374 48.374c12.918 12.916 33.94 12.916 46.86 0l18.868-18.866a271.124 271.124 0 0 0 54.662 24.824V810.8c0 7.874 1.364 15.616 4.054 23.014l65.318 179.632a16.034 16.034 0 0 0 30.136 0l65.32-179.634a67.15 67.15 0 0 0 4.054-23.012v-56.748a271.228 271.228 0 0 0 54.656-24.822l18.868 18.868c12.918 12.916 33.94 12.916 46.86 0l48.374-48.374c12.918-12.918 12.916-33.942 0-46.86L746.338 634c13.426-22.518 23.42-46.566 29.826-71.762h26.574c18.272 0 33.136-14.864 33.136-33.136v-68.41c0-18.27-14.864-33.134-33.134-33.134zM459.628 50.238c0-10.02 8.152-18.172 18.172-18.172h68.404c10.02 0 18.172 8.152 18.172 18.172v52.376h-104.748V50.238z m0 84.442h104.748v41.8a32.926 32.926 0 0 0-18.172-5.458h-68.41a32.914 32.914 0 0 0-18.166 5.456V134.68z m-32.066 469.262c-33.454-25.842-53.448-65.744-53.448-109.044 0-44.238 20.964-83.646 53.448-108.894v217.938z m84.44 357.106l-14.422-39.662h28.846l-14.424 39.662z m50.248-138.19l-24.166 66.462H485.92l-24.168-66.464a34.952 34.952 0 0 1-1.18-4.084h102.86c-0.322 1.38-0.694 2.746-1.182 4.086z m2.126-36.152h-104.748V367.368A137.12 137.12 0 0 1 512 357.01c18.534 0 36.216 3.7 52.376 10.362v419.334zM802.74 530.172h-39.356a16.028 16.028 0 0 0-15.712 12.844c-6.11 30.098-17.912 58.502-35.082 84.428a16.032 16.032 0 0 0 2.032 20.19l27.906 27.906a1.074 1.074 0 0 1 0 1.514l-48.372 48.372a1.074 1.074 0 0 1-1.514 0l-27.906-27.906a16.032 16.032 0 0 0-20.19-2.03 240.68 240.68 0 0 1-48.102 24.584V642.4c52.928-30.294 85.512-86.14 85.512-147.504 0-93.712-76.242-169.954-169.954-169.954s-169.954 76.24-169.954 169.954c0 61.378 32.584 117.212 85.516 147.508v77.668a240.68 240.68 0 0 1-48.108-24.586 16.038 16.038 0 0 0-20.19 2.032l-27.904 27.904a1.074 1.074 0 0 1-1.514 0l-48.372-48.372a1.074 1.074 0 0 1 0-1.514l27.906-27.906a16.032 16.032 0 0 0 2.03-20.19c-17.168-25.926-28.972-54.332-35.082-84.428a16.032 16.032 0 0 0-15.712-12.844h-39.356a1.068 1.068 0 0 1-1.068-1.068v-68.41c0-0.59 0.478-1.068 1.068-1.068h39.356a16.028 16.028 0 0 0 15.712-12.844c6.11-30.098 17.912-58.502 35.082-84.43a16.034 16.034 0 0 0-2.03-20.19l-27.906-27.904a1.072 1.072 0 0 1 0-1.512l48.372-48.372a1.074 1.074 0 0 1 1.514 0l27.906 27.906a16.038 16.038 0 0 0 20.19 2.032c25.924-17.168 54.33-28.972 84.428-35.082a16.032 16.032 0 0 0 12.844-15.712v-39.356c0-0.59 0.478-1.068 1.068-1.068h68.41c0.59 0 1.068 0.478 1.068 1.068v39.356a16.028 16.028 0 0 0 12.844 15.712c30.098 6.11 58.502 17.912 84.428 35.082a16.034 16.034 0 0 0 20.19-2.032l27.904-27.904a1.074 1.074 0 0 1 1.514 0l48.372 48.372a1.072 1.072 0 0 1 0 1.512l-27.906 27.906a16.032 16.032 0 0 0-2.03 20.19c17.168 25.924 28.972 54.332 35.082 84.43a16.032 16.032 0 0 0 15.712 12.844h39.356c0.59 0 1.068 0.478 1.068 1.068v68.406h0.002a1.076 1.076 0 0 1-1.072 1.072z m-206.298 73.766V386.008c32.484 25.25 53.444 64.656 53.444 108.89 0.002 43.292-19.994 83.196-53.444 109.04z" fill="" /><path d="M512 393.352a16.034 16.034 0 0 0-16.034 16.034v222.33a16.034 16.034 0 0 0 32.068 0V409.386a16.036 16.036 0 0 0-16.034-16.034zM512 684.094a16.034 16.034 0 0 0-16.034 16.034v34.198a16.034 16.034 0 0 0 32.068 0v-34.198a16.034 16.034 0 0 0-16.034-16.034z" fill="" /></svg>